<?xml version="1.0" standalone="no"?>
<!DOCTYPE svg PUBLIC "-//W3C//DTD SVG 1.1//EN" "http://www.w3.org/Graphics/SVG/1.1/DTD/svg11.dtd" >
<svg xmlns="http://www.w3.org/2000/svg">
<metadata>
Created by FontForge 20120731 at Fri Jan 29 11:22:46 2016
 By Ads
</metadata>
<defs>
<font id="iconfont" horiz-adv-x="1024" >
  <font-face 
    font-family="iconfont"
    font-weight="500"
    font-stretch="normal"
    units-per-em="1024"
    panose-1="2 0 6 3 0 0 0 0 0 0"
    ascent="896"
    descent="-128"
    x-height="792"
    bbox="27.875 -210 1006 812.103"
    underline-thickness="50"
    underline-position="-100"
    unicode-range="U+0078-E960"
  />
<missing-glyph horiz-adv-x="374" 
d="M34 0v682h272v-682h-272zM68 34h204v614h-204v-614z" />
    <glyph glyph-name=".notdef" horiz-adv-x="374" 
d="M34 0v682h272v-682h-272zM68 34h204v614h-204v-614z" />
    <glyph glyph-name=".null" horiz-adv-x="0" 
 />
    <glyph glyph-name="nonmarkingreturn" horiz-adv-x="341" 
 />
    <glyph glyph-name="x" unicode="x" horiz-adv-x="1001" 
d="M281 543q-27 -1 -53 -1h-83q-18 0 -36.5 -6t-32.5 -18.5t-23 -32t-9 -45.5v-76h912v41q0 16 -0.5 30t-0.5 18q0 13 -5 29t-17 29.5t-31.5 22.5t-49.5 9h-133v-97h-438v97zM955 310v-52q0 -23 0.5 -52t0.5 -58t-10.5 -47.5t-26 -30t-33 -16t-31.5 -4.5q-14 -1 -29.5 -0.5
t-29.5 0.5h-32l-45 128h-439l-44 -128h-29h-34q-20 0 -45 1q-25 0 -41 9.5t-25.5 23t-13.5 29.5t-4 30v167h911zM163 247q-12 0 -21 -8.5t-9 -21.5t9 -21.5t21 -8.5q13 0 22 8.5t9 21.5t-9 21.5t-22 8.5zM316 123q-8 -26 -14 -48q-5 -19 -10.5 -37t-7.5 -25t-3 -15t1 -14.5
t9.5 -10.5t21.5 -4h37h67h81h80h64h36q23 0 34 12t2 38q-5 13 -9.5 30.5t-9.5 34.5q-5 19 -11 39h-368zM336 498v228q0 11 2.5 23t10 21.5t20.5 15.5t34 6h188q31 0 51.5 -14.5t20.5 -52.5v-227h-327z" />
    <glyph glyph-name="uniE600" unicode="&#xe600;" 
d="M755 238q0 -5 -2.5 -10t-7.5 -8t-11 -3h-386q-5 0 -10 3t-8 8t-3 10l41 260q0 3 0.5 5.5t2 5t3.5 4.5t4 3l6 2q2 1 5 1h386q3 0 5 -1l6 -2q2 -1 4 -3t3 -5l2 -4q1 -3 1 -6zM708 531h-330q-4 0 -8.5 -2.5t-9 -9t-6.5 -15.5l-44 -287q-20 6 -23 25.5t-40 343.5q-1 1 -1 2v2
v4v4q0 3 1 5t2.5 4.5t3.5 4t5 2.5t7 1h169q4 0 7.5 -1.5t6 -4t5 -5.5t3.5 -6l4 -6q1 -3 1 -4l1 -2q6 -19 19 -19h228q22 0 24 -16q2 -15 -17 -19q-4 -1 -8 -1z" />
    <glyph glyph-name="uniE601" unicode="&#xe601;" 
d="M361 678l10 -4l-189 -520l-10 4zM554 679l48 -17l-185 -508l-48 17zM785 683l84 -31l-183 -503l-84 30z" />
    <glyph glyph-name="uniE606" unicode="&#xe606;" 
d="M358 356q1 1 2 3t6.5 4t12.5 1q10 -2 14 -8.5t4.5 -12t5 -9t14.5 -1.5v5q0 3 -1.5 11t-4.5 14.5t-9.5 12.5t-15.5 8q-28 6 -36 -8q-6 -9 8 -20zM517 308l2 -2l3 -4q3 -2 6 -3q2 1 5.5 3t13 4t17.5 0q4 -1 8 -2.5t7 -3t5.5 -3.5t4 -3.5t2.5 -3t2 -1.5v-1q4 -4 10.5 -5
t10 3t-0.5 15q0 1 -1 2t-3.5 4.5t-6.5 6.5t-11.5 6.5t-17.5 4.5q-17 4 -31 -0.5t-19 -10.5zM486 121q-30 21 -63 33.5t-46.5 15t-22.5 2.5h-2q-4 -1 -7 -9.5t-4 -13.5t-1 -8q0 -9 1.5 -18t6 -21t16 -22t28.5 -14q13 -4 25 -4q14 0 27 5t20 11.5t13.5 15t8 12.5t2.5 6t1 3.5
t-1 3t-2 2.5zM418 77q-10 0 -22 3q-33 9 -40 41q-1 7 -1 15t0.5 13t1.5 8q20 -3 52.5 -14.5t63.5 -30.5q-4 -7 -9.5 -14t-18 -14t-27.5 -7zM571 258q-4 1 -7.5 1t-6.5 -1t-7 -2l2 -1q11 -7 -1 -25q-5 -8 -12 -11.5t-11 -0.5q-3 2 -4 5t0 8q-5 -9 -8 -18q-6 -17 -7 -30.5
t4.5 -24t17.5 -14.5q9 -3 17 -1t15.5 9t12.5 16t10 22q5 16 6 30t-4.5 25t-16.5 13zM383 293q-5 1 -10 -1h1h1q10 -6 -1 -21t-22 -10q-4 3 -3 9q-5 -8 -8 -18q-12 -47 17 -53t42 41q6 20 2 36t-19 17zM805 415q-3 8 -3.5 16t1.5 17t4.5 16.5t8.5 18t10 16.5l10 18
q14 24 21 37t13.5 34t1.5 39t-20 35h-1q-59 67 -133 107q-46 25 -87 35.5t-60 6.5q-7 -1 -21.5 -10.5t-43.5 -34.5q-59 -50 -118 -109q-104 5 -156 -51q-44 -46 -39 -125q2 -22 12 -48.5t24 -52.5t33 -50.5t39 -42.5q-1 -2 -2 -4.5t-2 -4t-2 -4t-2.5 -4t-3 -4t-2.5 -3.5
t-3 -3.5t-3 -4t-3 -3.5q-9 -10 -13 -16q-36 -51 -4 -120l2 -4q1 -2 2 -5q-10 2 -24 3q-3 0 -5 0.5t-4 0.5h-4q-3 0 -5 1q14 82 -17 108q-3 3 -7.5 6t-9 5t-9.5 4q-31 13 -55 0q-13 -6 -17 -20q-4 -12 9 -43q17 -41 16 -67q-6 -4 -12 -9q-5 -4 -8.5 -8.5t-5.5 -9.5
q-2 -6 -1 -20v-7q-5 -8 -9 -21q-4 -14 -3 -22l2 -6q1 -3 3 -7v-1q2 -4 3 -5q-2 -9 -3 -16q0 -7 1.5 -13.5t5.5 -11.5l3 -3q4 -6 4 -8v-1v-2q-1 -19 10.5 -35t48.5 -29h5q11 0 50 14q60 20 66 27h1l1 1q2 4 3.5 9.5t1.5 10.5v7q0 4 -0.5 7t-1.5 6q6 8 8 16q16 7 38 15l44 16
q0 -14 1.5 -31t4.5 -35q1 -5 -2 -33v-2q-1 -4 2 -7q8 -9 37 -9h3h2q4 1 6 3.5t2 4.5l2 8q3 18 6 23q4 6 30.5 38.5t37.5 45.5q4 4 4 9q117 -55 123 -82q2 -10 -19 -35q-6 -7 -9.5 -11.5t-9.5 -12.5t-9.5 -15t-7.5 -16.5t-6 -20.5t-2 -22q0 -6 5 -9h4l6 2q80 69 76 123
q-3 29 -29.5 56t-77.5 58q24 10 35 17q9 6 24 28q29 -16 58 -16q25 0 46 13q11 6 19 16h16q27 0 49.5 5t40 14.5t30 24t20 33.5t8.5 42q3 40 -26 94.5t-83 114.5zM589 69q-12 -6 -25.5 -12t-26.5 -10l-7 -1q-1 -1 -3 -2q-7 -2 -15 -4t-16 -3.5t-16 -2.5h-6h-7h-6h-7
q-3 0 -6 -0.5t-6 -0.5t-6 -0.5t-6 -0.5t-6 -0.5t-5 -1.5h-1l-19 4q-2 0 -3.5 -0.5t-4.5 -0.5q-12 1 -16 3q-27 11 -65 55q-50 58 -29 111q4 11 9 18.5t13 17.5q14 18 20 33q1 2 1 5q6 15 2 23l-2 2q-17 19 -34 41.5t-32.5 52t-24 57.5t-7.5 58t15 54q53 65 139 65h10l7 -1
q84 -15 165 -58q80 -48 151.5 -115.5t113 -133.5t38.5 -110q-7 -97 -117 -102h-2q-5 0 -11 1q-5 1 -8 -3q-5 -5 -9 -8q-17 -12 -36 -12q-29 0 -54 20q-4 3 -8 2t-6 -4q-7 -13 -14.5 -23.5t-10.5 -12.5zM274 11l-4 -4q-3 -3 -3 -6.5t2 -6.5l5 -4q4 -5 4 -9q-5 -4 -4 -9
q-2 -4 -4 -6l-5 -4q-3 -3 -3 -7q0 -2 0.5 -3.5t2.5 -3.5l4 -4q0 -1 0.5 -2.5t0.5 -4.5v-5q-16 -7 -53 -20q-29 -10 -37 -12q-17 6 -26 13t-10 10.5t-1 9.5l1 3q0 5 -1 9t-3 7.5t-4 5.5l-4 6v2l-2 1q-1 1 0 5l2 10q2 10 -5 25h-1l-2 5q0 2 2 9q3 9 6 13v1q5 7 4 25v1v4v3
q1 2 5 5q5 5 12 9l3 3q1 0 1 1q2 2 3.5 4.5t2.5 5.5l1 8v1q1 32 -19 79q-8 20 -8 23q1 1 2 1.5l3 1.5h4q2 1 5 1q9 0 18.5 -4t17.5 -10q19 -17 4 -90q-2 -5 -1.5 -10t3.5 -9q0 -1 1 -1v0q1 -1 1 -2q1 -1 3 -2t3 -1h7h1q16 -1 29 -2q25 -2 32 -5q1 -1 0.5 -7.5t-2.5 -14.5
l-1 -4q-1 -5 3 -9l3 -2q7 -7 7 -13q0 -9 -6 -14zM299 54l1 6q26 -28 51 -43q-20 -9 -45 -22q-1 3 -2 5q16 29 -5 54zM432 2q7 0 14 0.5t14 0.5q-6 -7 -13 -15t-14 -17q-1 14 -1 31zM769 454q-44 45 -92 82q-38 30 -80 54t-85 40q-39 15 -78 24q55 53 94 86q41 36 50 38h2h3
q47 0 119 -39q68 -37 124 -99q10 -11 12.5 -23t-3 -27t-11 -25.5t-17.5 -30.5q-32 -52 -38 -80z" />
    <glyph glyph-name="uniE609" unicode="&#xe609;" 
d="M409 231.5q0 -28.5 -20 -48.5t-48.5 -20.5t-48.5 19.5t-20 49q0 18 9 34t24.5 25.5t34.5 9.5q28 0 48.5 -20t20.5 -48.5zM375 369q-9 0 -18 2t-16.5 6.5t-14 11t-11 14t-7 16.5t-2.5 18q0 14 5.5 26.5t14.5 22t21.5 15t26.5 5.5q29 0 49 -20t20 -48q1 -29 -19 -49
t-49 -20zM649 507q0 -29 -19.5 -49t-48 -20.5t-49 19.5t-20.5 48q0 19 9 35t24.5 25t34.5 10q14 0 27 -5.5t22 -14.5t14.5 -22t5.5 -26zM237 -38q73 -6 111 46q7 10 19 31q29 49 55 64t62 15l63 -52q4 -46 -11 -82.5t-41.5 -58t-61.5 -31t-70.5 -5.5t-69 23t-56.5 50z
M720 207q22 34 72 117.5t90 149.5l39 67q4 8 2.5 16t-7.5 12.5t-13.5 5.5t-15.5 -6q-225 -196 -292 -258q-9 -8 -15.5 -15t-12.5 -15t-9.5 -13t-7.5 -15t-5.5 -13.5t-5 -17t-4.5 -17.5t-4.5 -22t-5.5 -25l58 -48q6 3 23 9.5t21 8.5t16.5 7.5t16 8t12.5 8t13 10t11 12
t12.5 15.5t11.5 18zM287 42q-36 31 -62.5 71t-41 87t-14.5 97q-1 93 44.5 172.5t124 126.5t171.5 47q32 0 62.5 -5t54.5 -13.5t44 -20.5t33.5 -25t21 -27t7.5 -27q10 8 21 18t18.5 16.5t17.5 15.5q-10 23 -29 43.5t-45 38t-58 30t-70 19t-78 6.5q-112 -1 -206.5 -57
t-149 -151t-53.5 -207q1 -149 97 -262q25 -12 51 -9.5t39 16.5zM726 107q12 -26 7.5 -47t-26 -39t-47 -30t-55.5 -21q-16 -47 -48 -79q67 7 123.5 33t88 63.5t36 83t-32.5 91.5q-11 -18 -22.5 -31.5t-23.5 -23.5z" />
    <glyph glyph-name="uniE61E" unicode="&#xe61e;" 
d="M257 156zM788 511h-148v38q0 25 -16.5 42t-39.5 17h-111q-23 0 -39 -17t-16 -42v-38h-149q-10 0 -18.5 -5.5t-13.5 -14.5t-5 -20v-138v-39v-236q0 -17 11 -28.5t26 -11.5h519q15 0 26 11.5t11 28.5v413q0 8 -3 15.5t-8 13t-12 8.5t-14 3zM455 549q0 8 5 14t13 6h111
q8 0 13.5 -6t5.5 -14v-38h-148v38zM269 471h519v-138h-204v20q0 17 -11 28.5t-26 11.5h-37q-10 0 -18.5 -5.5t-13.5 -14.5t-5 -20v-20h-204v138zM547 254h-37v99h37v-99zM269 58v236h204v-40q0 -16 11 -28t26 -12h37q15 0 26 12t11 28v40h204v-236h-519z" />
    <glyph glyph-name="uniE62C" unicode="&#xe62c;" 
d="M338 389h18h-18zM338 648h-174v-174q0 -72 51 -123t123 -51q48 0 88 23.5t63 63.5t23 87q0 72 -51 123t-123 51zM338 344q-54 0 -92 38t-38 92v131h132q35 -1 65 -18.5t47 -47t17 -65.5q0 -54 -38.5 -92t-92.5 -38zM737 648q-47 0 -87 -23t-63.5 -63.5t-23.5 -87.5
q0 -72 51 -123t123 -51q48 0 88 23.5t63.5 63.5t23.5 87v174h-175zM868 474q0 -54 -38 -92t-92 -38q-27 0 -51 10.5t-41.5 28t-28 41.5t-10.5 50q0 54 37.5 92t90.5 39h133v-131zM737 249q-47 0 -87 -23.5t-63.5 -63.5t-23.5 -87q0 -72 51 -123t123 -51h175v174
q0 24 -6.5 46.5t-17.5 41.5t-27.5 35t-35.5 27t-41.5 17.5t-46.5 6.5zM868 75v-131h-133q-53 1 -90.5 39t-37.5 92t38 92t92.5 38t92.5 -38t38 -92zM338 249q-35 0 -67 -14t-55.5 -37t-37.5 -55.5t-14 -67.5v-174h174q72 0 123 51t51 123q0 28 -8.5 54.5t-24.5 48
t-37.5 37.5t-48 25t-55.5 9zM340 -56h-132v131q0 35 17.5 65t47.5 47.5t65 17.5q54 0 92.5 -38t38.5 -92t-37.5 -92t-91.5 -39z" />
    <glyph glyph-name="uniE635" unicode="&#xe635;" 
d="M910 388l-265 38l-119 241l-119 -241l-265 -38l192 -188l-45 -264l237 124l237 -124l-45 264zM526 119l-168 -89l31 188l-136 133l189 27l84 171l84 -171l188 -27l-136 -133l32 -188z" />
    <glyph glyph-name="uniE639" unicode="&#xe639;" 
d="M133 62v19h758v-19h-758z" />
    <glyph glyph-name="uniE63A" unicode="&#xe63a;" 
d="M645 512h-522l183 182l-22 22l-197 -197l-22 -22l22 -22l197 -197l22 22l-181 181h520q117 0 200.5 -83t83.5 -200q0 -120 -86 -203q-83 -81 -198 -81h-172q-6 0 -11 -4q-2 -2 -3 -5t-1 -6t1 -5.5t3 -5.5q5 -4 11 -4h172q130 0 222 92t92 222q0 36 -8 71.5t-24 66.5
t-37 58t-48.5 48.5t-58.5 37t-66 24t-72 8.5z" />
    <glyph glyph-name="uniE640" unicode="&#xe640;" 
d="M412 -38zM387 -38.5q0 10.5 7.5 18t17.5 7.5t17.5 -7.5t7.5 -18t-7.5 -18t-17.5 -7.5t-17.5 7.5t-7.5 18zM525 -38zM500 -38.5q0 10.5 7.5 18t17.5 7.5t17.5 -7.5t7.5 -18t-7.5 -18t-17.5 -7.5t-17.5 7.5t-7.5 18zM640 -38zM615 -38q0 6 3.5 12t9 9.5t12.5 3.5
q10 0 17.5 -7.5t7.5 -18t-7.5 -18t-17.5 -7.5q-5 0 -9.5 2t-8 5.5t-5.5 8t-2 10.5zM753 -38zM728 -38q0 6 3.5 12t9 9.5t12.5 3.5q10 0 17.5 -7.5t7.5 -18t-7.5 -18t-17.5 -7.5q-5 0 -9.5 2t-8 5.5t-5.5 8t-2 10.5zM868 -38zM843 -38q0 6 3.5 12t9 9.5t12.5 3.5q5 0 9.5 -2
t8 -5.5t5.5 -8t2 -9.5q0 -11 -7.5 -18.5t-17.5 -7.5t-17.5 7.5t-7.5 18.5zM981 -38zM956 -38q0 6 3.5 12t9 9.5t12.5 3.5q5 0 9.5 -2t8 -5.5t5.5 -8t2 -9.5q0 -11 -7.5 -18.5t-17.5 -7.5t-17.5 7.5t-7.5 18.5zM652 600q8 -7 14.5 -13t11.5 -11l11 -11q10 -9 16 -24t3 -35
t-19 -36l-447 -446l-199 -83q-7 -4 -12 2t-2 13q83 190 83 191q420 422 447 450q22 19 49 19t44 -16zM58 -30l157 66l-90 88zM136 143l99 -97l330 331l-98 96zM482 488l98 -96l44 43l-99 96zM540 547l100 -96l36 36q6 6 9 13.5t3 16t-3.5 17.5t-10.5 16q-4 4 -7.5 7
t-5.5 5.5t-4.5 5t-4.5 4l-6 4.5l-6 7q-12 11 -31.5 11.5t-31.5 -10.5q-4 -5 -9.5 -10t-10 -10t-8.5 -8.5t-7 -6.5z" />
    <glyph glyph-name="uniE64D" unicode="&#xe64d;" 
d="M809 -101h-594q-45 0 -77 32t-32 77v584q0 45 32 77t77 32h594q45 0 77 -32t32 -77v-584q0 -45 -32 -77t-77 -32zM215 663q-29 0 -49.5 -21t-20.5 -50v-584q0 -29 20.5 -50t49.5 -21h594q29 0 49.5 21t20.5 50v584q0 10 -2.5 19t-7 17t-11 14.5t-14 11t-17 7t-18.5 2.5
h-594zM739 337h-454q-5 0 -9.5 2.5t-7 7t-2.5 9.5v326q0 8 5.5 13.5t13.5 5.5h454q4 0 7.5 -1.5t6 -4t4 -6t1.5 -7.5v-326q0 -8 -5.5 -13.5t-13.5 -5.5zM304 375h416v288h-416v-288zM597 597h57v-191h-57v191zM597 597z" />
    <glyph glyph-name="uniE653" unicode="&#xe653;" 
d="M114 38v251v95v64v45v69q0 19 13 32t32 13h205q19 0 32.5 -13t13.5 -32v-23h45h23h250q9 0 17.5 -3.5t14.5 -9.5t10 -14.5t4 -18.5v-113h45v136q0 28 -20 48t-48 20h-296q0 29 -20 49t-48 20h-250q-19 0 -34.5 -9.5t-25 -25t-9.5 -34.5v-68v-68v-432q0 -29 20 -49t49 -20
h455v46h-433q-9 0 -17.5 3.5t-14.5 9.5t-9.5 14.5t-3.5 17.5zM933 129h-114v114q0 10 -6.5 16.5t-16 6.5t-16 -6.5t-6.5 -16.5v-114h-114q-5 0 -9 -1.5t-7 -4.5t-5 -7.5t-2 -8.5q0 -7 3 -12t8.5 -8t11.5 -3h114v-114q0 -9 6.5 -16t15.5 -7q7 0 12 3t8 8.5t3 11.5v114h114
q6 0 11.5 3t8.5 8t3 12q0 9 -7 15.5t-16 6.5z" />
    <glyph glyph-name="uniE6C5" unicode="&#xe6c5;" 
d="M930 432l-273 273q-27 27 -64.5 27t-64.5 -27l-434 -434q-13 -13 -20 -30t-7 -34.5t7 -34.5t20 -30l199 -199l-6 6q60 -60 144.5 -60t144.5 60l-1 -1l355 355q18 17 24 40.5t0 47t-24 41.5zM335 -31l-124 122l-88 88q-14 13 -14 32t14 32l80 79l344 -341
q-41 -42 -106 -46.5t-106 34.5zM897 333l-242 -245l-76 -75l-343 341l317 320q14 13 32.5 13t32.5 -13l279 -277q13 -13 13 -32t-13 -32z" />
    <glyph glyph-name="uniE6DC" unicode="&#xe6dc;" 
d="M511 704q-132 0 -225.5 -93.5t-93.5 -225.5t93.5 -225.5t225.5 -93.5t225.5 93.5t93.5 225.5t-93.5 225.5t-225.5 93.5zM511 115q-55 0 -105 21t-86 57.5t-57.5 86.5t-21.5 105q0 73 36 135.5t98.5 98.5t135.5 36q112 0 191 -79t79 -191q0 -117 -84 -197
q-79 -73 -186 -73zM511 115z" />
    <glyph glyph-name="uniE6DD" unicode="&#xe6dd;" 
d="M800 705h-580q-12 0 -20.5 -8.5t-8.5 -20.5v-580q0 -12 8.5 -20.5t20.5 -8.5h580q12 0 20.5 8.5t8.5 20.5v580q0 8 -3.5 14.5t-10.5 10.5t-15 4zM254 127v516h516v-517zM457 312z" />
    <glyph glyph-name="uniE6EF" unicode="&#xe6ef;" 
d="M480 160q-3 2 -6 3.5t-6 2t-6.5 0.5t-6.5 -0.5t-6 -2t-5.5 -3.5t-4.5 -5l-158 -201q-8 -9 -6.5 -21t11.5 -19q7 -6 17 -6q5 0 9 1t7.5 3.5t6.5 6.5l158 201q3 3 4.5 7.5t2 9t-1 8.5t-4 8t-5.5 7zM606 160q-3 2 -6.5 3.5t-7 2t-7.5 0t-7 -1.5t-6.5 -3.5t-5.5 -5.5
l-159 -201q-7 -9 -5.5 -21t10.5 -19q8 -6 18 -6q4 0 8.5 1t8 3.5t6.5 6.5l158 201q3 3 4.5 6.5t2 7t0 7.5t-2 7t-4 6.5t-5.5 5.5zM732 160q-9 7 -21 5.5t-19 -10.5l-159 -201q-3 -4 -4.5 -10t-1 -11t3.5 -10.5t7 -8.5q8 -6 18 -6q6 0 12 2.5t11 8.5l158 201q5 6 6 13.5
t-2 14.5t-9 12zM984 233q0 32 -10.5 63t-29 56.5t-45 46t-57.5 32.5q-16 107 -101 180q-93 81 -219 81q-78 0 -146.5 -33t-113.5 -90.5t-59 -129.5q-92 -25 -136 -106q-26 -47 -26 -98q0 -89 66 -151.5t159 -62.5q12 0 20.5 8.5t8.5 20.5q0 8 -4 14.5t-10.5 10.5t-14.5 4
q-69 0 -118.5 45.5t-49.5 110.5q0 55 38.5 98.5t97.5 53.5l21 4l3 21q10 95 85.5 158.5t178.5 63.5t180 -66t85 -161l2 -20l19 -5q53 -15 85.5 -56t32.5 -93q0 -64 -49 -110t-119 -46q-12 0 -20.5 -8.5t-8.5 -19.5q0 -8 4 -14.5t10.5 -10.5t14.5 -4h4h3q91 3 155 65t64 148z
" />
    <glyph glyph-name="uniE6F7" unicode="&#xe6f7;" 
d="M601 165q-4 4 -10 5.5t-11 0.5t-10.5 -3.5t-8.5 -7.5l-158 -202q-5 -6 -6 -13.5t1.5 -14.5t8.5 -12q2 -1 3.5 -2t3.5 -2t4 -1.5t4 -0.5h3q14 0 23 11l158 201q5 7 6 14.5t-2 14.5t-9 12zM983 238q0 43 -18 83t-50 70t-74 46q-16 107 -101 180q-92 81 -219 81
q-118 0 -208 -72t-110 -181q-47 -13 -84 -43t-58 -72.5t-21 -89.5q0 -89 66.5 -151.5t159.5 -62.5q12 0 20.5 8.5t8.5 20.5q0 6 -2.5 11t-6.5 9t-9 6.5t-11 2.5q-70 0 -119 45.5t-49 110.5q0 56 38.5 99t97.5 54l21 4l2 21q3 27 12 52.5t23 47.5t32 41t40.5 34t47.5 25.5
t52.5 16t56.5 5.5q103 0 180 -66t85 -161l2 -20l19 -6q53 -15 85.5 -56t32.5 -93q0 -64 -49 -110t-119 -46q-12 0 -20 -8.5t-8 -20.5t8 -20.5t20 -8.5h4h1t2 1q91 2 155 64t64 149z" />
    <glyph glyph-name="uniE700" unicode="&#xe700;" 
d="M984 221q0 65 -39 119.5t-103 78.5q-16 106 -101 180q-93 80 -219 80q-78 0 -146.5 -32.5t-114 -90t-58.5 -129.5q-72 -20 -117 -76.5t-45 -128.5q0 -88 66 -150.5t159 -62.5q12 0 20.5 8.5t8.5 20.5q0 8 -4 14.5t-10.5 10.5t-14.5 4q-69 0 -118.5 45.5t-49.5 109.5
q0 56 38.5 99t97.5 54l21 4l3 21q10 95 85.5 158.5t178.5 63.5q68 0 127 -30t96 -82.5t42 -114.5l2 -20l19 -5q53 -16 86 -57t33 -92q0 -65 -49.5 -110.5t-119.5 -45.5q-7 0 -14 -4t-10.5 -10.5t-3.5 -14t3.5 -14.5t10.5 -10.5t14 -3.5h4h3q91 2 155 64t64 149zM505 172
q-9 7 -21 5.5t-20 -10.5l-158 -201q-5 -6 -6 -13.5t2 -15t9 -11.5q2 -2 5 -3.5t6 -2.5t7 -1q14 0 22 11l159 201q3 5 4.5 10.5t1 11t-3 10.5t-7.5 9zM692 172q-6 5 -13.5 6t-14.5 -2t-12 -9l-159 -201q-7 -9 -5.5 -21t10.5 -19q8 -7 18 -7q14 0 23 11l158 201q4 5 5.5 10.5
t0.5 11t-3.5 10.5t-7.5 9z" />
    <glyph glyph-name="uniE71C" unicode="&#xe71c;" 
d="M811 684h-598q-35 0 -60 -25t-25 -60v-598q0 -23 11.5 -42.5t31 -31t42.5 -11.5h598q35 0 60 25t25 60v598q0 35 -25 60t-60 25z" />
    <glyph glyph-name="uniE960" unicode="&#xe960;" 
d="M925 255v327q35 20 35 60q0 19 -9.5 35t-25.5 25t-34 9q-40 0 -60 -34h-500q-6 10 -15.5 18t-21 12t-23.5 4q-14 0 -27 -5.5t-22 -14.5t-14.5 -22t-5.5 -27q0 -23 14 -42l-90 -337q-13 -1 -24.5 -7t-19.5 -15t-13 -21t-5 -25q0 -29 20.5 -49t48.5 -20q40 0 60 34h147v34
h-138v1q0 21 -11.5 38.5t-31.5 25.5l86 319q12 -5 26 -5q29 0 49 20.5t20 48.5v1h482v-1q0 -28 20 -48.5t49 -20.5v-309q-29 0 -49 -20.5t-20 -48.5v-1h-103v-34h112q4 -6 8.5 -11.5t10.5 -9.5t12.5 -7t13.5 -4.5t15 -1.5q28 0 48.5 20t20.5 49q0 40 -35 60zM546 298h-34
v-103h-104v-35h104v-103h34v103h104v35h-104v103z" />
  </font>
</defs>
</svg>
